<?xml version="1.0" encoding="UTF-8" standalone="no"?><!DOCTYPE svg PUBLIC "-//W3C//DTD SVG 1.1//EN" "http://www.w3.org/Graphics/SVG/1.1/DTD/svg11.dtd"><svg preserveAspectRatio="none" viewBox="0 0 100 100" version="1.1" xmlns="http://www.w3.org/2000/svg" xmlns:xlink="http://www.w3.org/1999/xlink" xml:space="preserve" xmlns:serif="http://www.serif.com/" style="fill-rule:evenodd;clip-rule:evenodd;stroke-linecap:square;stroke-linejoin:round;stroke-miterlimit:1.5;"><rect x="0" y="0" width="100" height="100" style="fill:#9b788d;"/><path d="M100,0l0,100l-100,0l0,-100l100,0Zm-1,1l-98,0l0,98l98,-0l-0,-98Z" style="fill:#6c2450;"/><path d="M21,21l-20,-20.095" style="fill:none;stroke:#6c2450;stroke-width:1px;"/><path d="M79,21l20,-20.095" style="fill:none;stroke:#6c2450;stroke-width:1px;"/><path d="M79,79l20,19.905" style="fill:none;stroke:#6c2450;stroke-width:1px;"/><path d="M21,79l-20,19.905" style="fill:none;stroke:#6c2450;stroke-width:1px;"/><rect x="21" y="21" width="58" height="58" style="fill:#bea9b6;"/><path d="M79,21l0,58l-58,0l0,-58l58,0Zm-1,1c-0,0 -56,0 -56,-0c0,-0 0,56 -0,56c-0,0 56,0 56,0l-0,-56Z" style="fill:#6c2450;"/></svg>